<svg width="1724" height="990" xmlns="http://www.w3.org/2000/svg" xmlns:xlink="http://www.w3.org/1999/xlink" xml:space="preserve" overflow="hidden"><defs><clipPath id="clip0"><rect x="90" y="420" width="1724" height="990"/></clipPath><linearGradient x1="740.5" y1="1156" x2="740.5" y2="1196" gradientUnits="userSpaceOnUse" spreadMethod="reflect" id="fill1"><stop offset="0" stop-color="#F18C55"/><stop offset="0.5" stop-color="#F67B28"/><stop offset="1" stop-color="#E56B17"/></linearGradient><linearGradient x1="816.5" y1="1000" x2="816.5" y2="1039" gradientUnits="userSpaceOnUse" spreadMethod="reflect" id="fill2"><stop offset="0" stop-color="#F18C55"/><stop offset="0.5" stop-color="#F67B28"/><stop offset="1" stop-color="#E56B17"/></linearGradient><linearGradient x1="740.5" y1="843" x2="740.5" y2="882" gradientUnits="userSpaceOnUse" spreadMethod="reflect" id="fill3"><stop offset="0" stop-color="#F18C55"/><stop offset="0.5" stop-color="#F67B28"/><stop offset="1" stop-color="#E56B17"/></linearGradient><linearGradient x1="816.5" y1="686" x2="816.5" y2="725" gradientUnits="userSpaceOnUse" spreadMethod="reflect" id="fill4"><stop offset="0" stop-color="#F18C55"/><stop offset="0.5" stop-color="#F67B28"/><stop offset="1" stop-color="#E56B17"/></linearGradient><linearGradient x1="855.5" y1="1332" x2="855.5" y2="1355" gradientUnits="userSpaceOnUse" spreadMethod="reflect" id="fill5"><stop offset="0" stop-color="#F18C55"/><stop offset="0.5" stop-color="#F67B28"/><stop offset="1" stop-color="#E56B17"/></linearGradient></defs><g clip-path="url(#clip0)" transform="translate(-90 -420)"><rect x="90.0001" y="420" width="1724" height="990" fill="#FFFFFF"/><g><path d="M1384.05 1235.04 627 1235.04 627 1196.04 1384.05 1196.04ZM1403.05 1078.04 627 1078.04 627 1039.03 1403.05 1039.03ZM1233.04 921.03 627 921.03 627 882.029 1233.04 882.029ZM1489.05 764.025 627 764.025 627 725.024 1489.05 725.024Z" fill="#00B0F0"/></g><g><rect x="627" y="1156" width="227" height="39.9999" fill="url(#fill1)"/></g><g><rect x="627" y="1000" width="379" height="39.0002" fill="url(#fill2)"/></g><g><rect x="627" y="843" width="227" height="39.0002" fill="url(#fill3)"/></g><g><rect x="627" y="686" width="379" height="38.9998" fill="url(#fill4)"/></g><g><path d="M1290.04 1156.04 627 1156.04 627 1117.04 1290.04 1117.04ZM1650.05 1000.03 627 1000.03 627 960.031 1650.05 960.031ZM1195.04 843.028 627 843.028 627 803.026 1195.04 803.026ZM1650.05 686.023 627 686.023 627 647.021 1650.05 647.021Z" fill="#00B050"/></g><g><path d="M0 0 0.000360892 784" stroke="#D9D9D9" stroke-width="4.58333" stroke-linejoin="round" stroke-miterlimit="10" fill="none" fill-rule="evenodd" transform="matrix(1 0 0 -1 626.5 1254.5)"/></g><g><text fill="#FFFFFF" font-family="Calibri,Calibri_MSFontService,sans-serif" font-weight="400" font-size="41" transform="matrix(1 0 0 1 1315.12 1229)">40</text></g><g><text fill="#FFFFFF" font-family="Calibri,Calibri_MSFontService,sans-serif" font-weight="400" font-size="41" transform="matrix(1 0 0 1 1334.06 1072)">41</text></g><g><text fill="#FFFFFF" font-family="Calibri,Calibri_MSFontService,sans-serif" font-weight="400" font-size="41" transform="matrix(1 0 0 1 1163.57 915)">32</text></g><g><text fill="#FFFFFF" font-family="Calibri,Calibri_MSFontService,sans-serif" font-weight="400" font-size="41" transform="matrix(1 0 0 1 1388.11 758)">45,5</text></g><g><text fill="#FFFFFF" font-family="Calibri,Calibri_MSFontService,sans-serif" font-weight="400" font-size="41" transform="matrix(1 0 0 1 784.713 1190)">12</text></g><g><text fill="#FFFFFF" font-family="Calibri,Calibri_MSFontService,sans-serif" font-weight="400" font-size="41" transform="matrix(1 0 0 1 936.257 1033)">20</text></g><g><text fill="#FFFFFF" font-family="Calibri,Calibri_MSFontService,sans-serif" font-weight="400" font-size="41" transform="matrix(1 0 0 1 784.713 876)">12</text></g><g><text fill="#FFFFFF" font-family="Calibri,Calibri_MSFontService,sans-serif" font-weight="400" font-size="41" transform="matrix(1 0 0 1 936.257 719)">20</text></g><g><text fill="#FFFFFF" font-family="Calibri,Calibri_MSFontService,sans-serif" font-weight="400" font-size="41" transform="matrix(1 0 0 1 1220.4 1151)">35</text></g><g><text fill="#FFFFFF" font-family="Calibri,Calibri_MSFontService,sans-serif" font-weight="400" font-size="41" transform="matrix(1 0 0 1 1580.32 994)">54</text></g><g><text fill="#FFFFFF" font-family="Calibri,Calibri_MSFontService,sans-serif" font-weight="400" font-size="41" transform="matrix(1 0 0 1 1125.69 837)">30</text></g><g><text fill="#FFFFFF" font-family="Calibri,Calibri_MSFontService,sans-serif" font-weight="400" font-size="41" transform="matrix(1 0 0 1 1580.32 680)">54</text></g><g><text fill="#595959" font-family="Calibri,Calibri_MSFontService,sans-serif" font-weight="400" font-size="41" transform="matrix(1 0 0 1 399.184 1188)">MEX 85MG</text></g><g><text fill="#595959" font-family="Calibri,Calibri_MSFontService,sans-serif" font-weight="400" font-size="41" transform="matrix(1 0 0 1 322.574 1031)">ABSIMA S90MH</text></g><g><text fill="#595959" font-family="Calibri,Calibri_MSFontService,sans-serif" font-weight="400" font-size="41" transform="matrix(1 0 0 1 189.335 874)">MICRO BOTBALL SERVO</text></g><g><text fill="#595959" font-family="Calibri,Calibri_MSFontService,sans-serif" font-weight="400" font-size="41" transform="matrix(1 0 0 1 120.149 717)">STANDARD BOTBALL SERVO</text></g><g><rect x="546" y="1332" width="23.0001" height="23" fill="#00B050"/></g><g><text fill="#595959" font-family="Calibri,Calibri_MSFontService,sans-serif" font-weight="400" font-size="41" transform="matrix(1 0 0 1 578.24 1355)">Length (mm)</text></g><g><rect x="844" y="1332" width="23.0001" height="23" fill="url(#fill5)"/></g><g><text fill="#595959" font-family="Calibri,Calibri_MSFontService,sans-serif" font-weight="400" font-size="41" transform="matrix(1 0 0 1 876.538 1355)">Width (mm)</text></g><g><rect x="1131" y="1332" width="23" height="23" fill="#00B0F0"/></g><g><text fill="#595959" font-family="Calibri,Calibri_MSFontService,sans-serif" font-weight="400" font-size="41" transform="matrix(1 0 0 1 1163.7 1355)">Height (mm)</text></g></g></svg>