<svg width="1650" height="990" xmlns="http://www.w3.org/2000/svg" xmlns:xlink="http://www.w3.org/1999/xlink" xml:space="preserve" overflow="hidden"><defs><clipPath id="clip0"><rect x="0" y="374" width="1650" height="990"/></clipPath><clipPath id="clip1"><rect x="536" y="424" width="1067" height="788"/></clipPath></defs><g clip-path="url(#clip0)" transform="matrix(1 0 0 1 0 -374)"><rect x="0" y="374" width="1650" height="990" fill="#FFFFFF"/><g clip-path="url(#clip1)"><path d="M1174.04 1160.04 536 1160.04 536 1062.03 1174.04 1062.03ZM791.026 963.032 536 963.032 536 865.028 791.026 865.028ZM1387.05 767.025 536 767.025 536 669.022 1387.05 669.022ZM877.029 571.019 536 571.019 536 473.016 877.029 473.016Z" fill="#00B050"/></g><g><path d="M0 0 0.000360892 784" stroke="#D9D9D9" stroke-width="4.58333" stroke-linejoin="round" stroke-miterlimit="10" fill="none" fill-rule="evenodd" transform="matrix(1 0 0 -1 536.5 1208.5)"/></g><g><text fill="#FFFFFF" font-family="Calibri,Calibri_MSFontService,sans-serif" font-weight="400" font-size="41" transform="matrix(1 0 0 1 1073.8 1124)">0,15</text></g><g><text fill="#FFFFFF" font-family="Calibri,Calibri_MSFontService,sans-serif" font-weight="400" font-size="41" transform="matrix(1 0 0 1 691.029 928)">0,06</text></g><g><text fill="#FFFFFF" font-family="Calibri,Calibri_MSFontService,sans-serif" font-weight="400" font-size="41" transform="matrix(1 0 0 1 1286.45 732)">0,20</text></g><g><text fill="#FFFFFF" font-family="Calibri,Calibri_MSFontService,sans-serif" font-weight="400" font-size="41" transform="matrix(1 0 0 1 776.089 536)">0,08</text></g><g><text fill="#595959" font-family="Calibri,Calibri_MSFontService,sans-serif" font-weight="400" font-size="41" transform="matrix(1 0 0 1 29.7917 1122)">STANDARD BOTBALL SERVO</text></g><g><text fill="#595959" font-family="Calibri,Calibri_MSFontService,sans-serif" font-weight="400" font-size="41" transform="matrix(1 0 0 1 98.9776 926)">MICRO BOTBALL SERVO</text></g><g><text fill="#595959" font-family="Calibri,Calibri_MSFontService,sans-serif" font-weight="400" font-size="41" transform="matrix(1 0 0 1 232.216 730)">ABSIMA S90MH</text></g><g><text fill="#595959" font-family="Calibri,Calibri_MSFontService,sans-serif" font-weight="400" font-size="41" transform="matrix(1 0 0 1 308.827 534)">MEX 85MG</text></g><g><rect x="678" y="1286" width="22" height="23" fill="#00B050"/></g><g><text fill="#595959" font-family="Calibri,Calibri_MSFontService,sans-serif" font-weight="400" font-size="41" transform="matrix(1 0 0 1 709.881 1309)">Speed in sec/60°</text></g></g></svg>